<svg width="64" height="64" xmlns="http://www.w3.org/2000/svg">
 <defs>
  <style>.cls-1{fill:#70bdfb;stroke:#70bdfb;}.cls-1,.cls-2,.cls-3,.cls-6{stroke-linecap:round;stroke-linejoin:round;stroke-width:2px;}.cls-2{fill:#cfd8dc;stroke:#cfd8dc;}.cls-3{fill:#fff;opacity:0.2;}.cls-3,.cls-6{stroke:#fff;}.cls-4{fill:#4f4f4f;}.cls-5{fill:#ff4931;}.cls-6{fill:none;}</style>
 </defs>
 <title>drink</title>
 <g>
  <title>background</title>
  <rect fill="none" id="canvas_background" height="402" width="582" y="-1" x="-1"/>
 </g>
 <g>
  <title>Layer 1</title>
  <path stroke="#c993ff" id="svg_10" d="m1.151571,29.697923l5.753361,-16.223316l15.062409,-10.02668l18.618448,0l15.062502,10.02668l5.753265,16.223316l-5.753265,16.223316l-15.062502,10.026678l-18.618448,0l-15.062409,-10.026678l-5.753361,-16.223316z" stroke-width="1.5" fill="#f9f9f7"/>
  <g transform="rotate(-12.608813285827637 17.000001907348647,26.437500000000004) " stroke="null" id="drink">
   <polygon stroke="null" id="svg_11" points="22.066178917884827,38.125003814697266 11.933825135231018,38.125003814697266 10.375001549720764,14.749998092651367 23.625003457069397,14.749998092651367 22.066178917884827,38.125003814697266 " class="cls-1"/>
   <polygon stroke="null" id="svg_12" points="11.81691038608551,36.45536422729492 11.933825135231018,38.125003814697266 22.066178917884827,38.125003814697266 22.1830917596817,36.45536422729492 11.81691038608551,36.45536422729492 " class="cls-2"/>
   <polygon stroke="null" id="svg_13" points="10.721840500831604,19.758926391601562 23.278161644935608,19.758926391601562 23.625003457069397,14.749998092651367 10.375001549720764,14.749998092651367 10.721840500831604,19.758926391601562 " class="cls-2"/>
   <polygon stroke="null" id="svg_14" points="21.676473259925842,14.749998092651367 20.117650628089905,38.125003814697266 22.066178917884827,38.125003814697266 23.625003457069397,14.749998092651367 21.676473259925842,14.749998092651367 " class="cls-3"/>
   <circle stroke="null" id="svg_15" transform="matrix(0.27556376053035353,-0.2951540119119775,0.27556376053035353,0.2951540119119775,6.432580870837317,35.923650855563196) " r="1.5" cy="-1.847001" cx="31.006086" class="cls-4"/>
   <circle stroke="null" id="svg_16" transform="matrix(0.27556376053035353,-0.2951540119119775,0.27556376053035353,0.2951540119119775,4.332276072343473,38.1729503695234) " r="1.5" cy="7.353" cx="47.816086" class="cls-4"/>
   <path stroke="null" id="svg_17" d="m14.27206,29.017099c0,-0.655335 5.455884,-0.655335 5.455884,0l0,0c0,1.118661 -1.21978,2.01192 -2.727942,2.01192s-2.727942,-0.893259 -2.727942,-1.999398t0,-0.012522z" class="cls-4"/>
   <ellipse stroke="null" id="svg_18" ry="0.417411" rx="1.169118" cy="29.776787" cx="16.933752" class="cls-5"/>
   <line stroke="null" id="svg_19" y2="23.515625" x2="12.713236" y1="16.837052" x1="12.32353" class="cls-6"/>
  </g>
  <g stroke="null" id="svg_50">
   <polygon stroke="null" id="svg_41" points="36.191177397966385,29.5000057220459 26.05882266163826,29.5000057220459 24.49999812245369,6.125 37.75000002980232,6.125 36.191177397966385,29.5000057220459 " class="cls-1"/>
   <polygon stroke="null" id="svg_42" points="25.94190600514412,27.830366134643555 26.05882266163826,29.5000057220459 36.191177397966385,29.5000057220459 36.308086425065994,27.830366134643555 25.94190600514412,27.830366134643555 " class="cls-2"/>
   <polygon stroke="null" id="svg_43" points="24.846836119890213,11.133928298950195 37.403160125017166,11.133928298950195 37.75000002980232,6.125 24.49999812245369,6.125 24.846836119890213,11.133928298950195 " class="cls-2"/>
   <polygon stroke="null" id="svg_44" points="35.801467925310135,6.125 34.2426452934742,29.5000057220459 36.191177397966385,29.5000057220459 37.75000002980232,6.125 35.801467925310135,6.125 " class="cls-3"/>
   <circle stroke="null" id="svg_45" transform="matrix(0.27556376053035353,-0.2951540119119775,0.27556376053035353,0.2951540119119775,6.432580870837317,35.923650855563196) " r="1.5" cy="9.171257" cx="71.24637" class="cls-4"/>
   <circle stroke="null" id="svg_46" transform="matrix(0.27556376053035353,-0.2951540119119775,0.27556376053035353,0.2951540119119775,4.332276072343473,38.1729503695234) " r="1.5" cy="18.371258" cx="88.05637" class="cls-4"/>
   <path stroke="null" id="svg_47" d="m28.397056,20.392102c0,-0.65534 5.45588,-0.65534 5.45588,0l0,0c0,1.11866 -1.21977,2.01192 -2.72794,2.01192s-2.72794,-0.89326 -2.72794,-1.9994t0,-0.01252z" class="cls-4"/>
   <ellipse stroke="null" id="svg_48" ry="0.417411" rx="1.169118" cy="21.151789" cx="31.058749" class="cls-5"/>
   <line stroke="null" id="svg_49" y2="14.890627" x2="26.838233" y1="8.212054" x1="26.448527" class="cls-6"/>
  </g>
  <g transform="rotate(13.069650650024414 45.24999237060547,26.81250000000001) " stroke="null" id="svg_60">
   <polygon stroke="null" id="svg_51" points="50.3161700963974,38.500003695487976 40.18381917476654,38.500003695487976 38.62499272823334,15.124997973442078 51.8749965429306,15.124997973442078 50.3161700963974,38.500003695487976 " class="cls-1"/>
   <polygon stroke="null" id="svg_52" points="40.0669025182724,36.83036410808563 40.18381917476654,38.500003695487976 50.3161700963974,38.500003695487976 50.433082938194275,36.83036410808563 40.0669025182724,36.83036410808563 " class="cls-2"/>
   <polygon stroke="null" id="svg_53" points="38.971832633018494,20.133926272392273 51.52815282344818,20.133926272392273 51.8749965429306,15.124997973442078 38.62499272823334,15.124997973442078 38.971832633018494,20.133926272392273 " class="cls-2"/>
   <polygon stroke="null" id="svg_54" points="49.92646825313568,15.124997973442078 48.367645621299744,38.500003695487976 50.3161700963974,38.500003695487976 51.8749965429306,15.124997973442078 49.92646825313568,15.124997973442078 " class="cls-3"/>
   <circle stroke="null" id="svg_55" transform="matrix(0.27556376053035353,-0.2951540119119775,0.27556376053035353,0.2951540119119775,6.432580870837317,35.923650855563196) " r="1.5" cy="50.046803" cx="81.629366" class="cls-4"/>
   <circle stroke="null" id="svg_56" transform="matrix(0.27556376053035353,-0.2951540119119775,0.27556376053035353,0.2951540119119775,4.332276072343473,38.1729503695234) " r="1.5" cy="59.246803" cx="98.439367" class="cls-4"/>
   <path stroke="null" id="svg_57" d="m42.522053,29.3921c0,-0.65534 5.45588,-0.65534 5.45588,0l0,0c0,1.11866 -1.21977,2.01192 -2.72794,2.01192s-2.72794,-0.89326 -2.72794,-1.9994t0,-0.01252z" class="cls-4"/>
   <ellipse stroke="null" id="svg_58" ry="0.417411" rx="1.169118" cy="30.151787" cx="45.183745" class="cls-5"/>
   <line stroke="null" id="svg_59" y2="23.890625" x2="40.963229" y1="17.212052" x1="40.573523" class="cls-6"/>
  </g>
  <ellipse stroke="#000" ry="4.874999" rx="22.437497" id="svg_61" cy="44.37499" cx="31.124998" stroke-opacity="null" stroke-width="0" fill="#c993ff"/>
  <text stroke="#000" transform="matrix(0.23536851770508294,0,0,0.2680654292714504,38.359316859694104,28.09413797496903) " xml:space="preserve" text-anchor="start" font-family="'Times New Roman', Times, serif" font-size="24" id="svg_62" y="67.441525" x="-100.247181" stroke-opacity="null" stroke-width="0" fill="#000000">Aqualabean.ru</text>
 </g>
</svg>