<?xml version="1.0" encoding="utf-8"?>
<!-- Generator: Adobe Illustrator 16.0.0, SVG Export Plug-In . SVG Version: 6.00 Build 0)  -->
<!DOCTYPE svg PUBLIC "-//W3C//DTD SVG 1.1//EN" "http://www.w3.org/Graphics/SVG/1.1/DTD/svg11.dtd">
<svg version="1.1" id="Layer_1" xmlns="http://www.w3.org/2000/svg" xmlns:xlink="http://www.w3.org/1999/xlink" x="0px" y="0px"
	 width="512px" height="512px" viewBox="0 0 512 512" enable-background="new 0 0 512 512" xml:space="preserve">
<g>
	<path fill-rule="evenodd" clip-rule="evenodd" fill="#D95344" d="M256,125.085C233.679,83.87,184.904,55.76,136.011,55.76
		c-66.255,0-119.99,53.735-119.99,119.989c0,34.132,14.289,64.957,37.081,86.806L256,456.24l202.898-193.686
		c22.792-21.849,37.081-52.674,37.081-86.806c0-66.254-53.735-119.989-119.99-119.989C327.214,55.76,278.321,83.87,256,125.085
		L256,125.085z"/>
	<path fill-rule="evenodd" clip-rule="evenodd" fill="#DE6B5F" d="M256,125.085C233.679,83.87,184.904,55.76,136.011,55.76
		c-24.449,0-47.242,7.323-66.255,19.956C-7.957,171.143,192.227,307.55,257.18,354.438c13.817-29.999,67.557-77.474,67.557-77.474
		c83.021-64.369,94.951-150.108,29.994-178.805C289.66,69.576,256,125.085,256,125.085L256,125.085z"/>
	<path fill-rule="evenodd" clip-rule="evenodd" fill="#C84C3F" d="M256,421.046L39.639,214.369
		c-9.211-8.739-17.007-18.895-23.269-29.999c2.128,30.705,15.827,58.228,36.731,78.185L256,456.24l202.898-193.686
		c20.904-19.957,34.603-47.479,36.846-78.185c-6.258,11.104-14.171,21.26-23.383,29.999L256,421.046z"/>
</g>
</svg>
