<?xml version="1.0" ?><svg enable-background="new 0 0 32 32" version="1.1" viewBox="0 0 32 32" xml:space="preserve" xmlns="http://www.w3.org/2000/svg" xmlns:xlink="http://www.w3.org/1999/xlink"><g id="Filled"><g><g><circle cx="11.48" cy="5.883" fill="#FFFFFF" r="4.883"/></g><g><path d="M11.48,2c2.141,0,3.883,1.742,3.883,3.883s-1.742,3.883-3.883,3.883S7.597,8.024,7.597,5.883S9.339,2,11.48,2 M11.48,0     C8.231,0,5.597,2.634,5.597,5.883s2.634,5.883,5.883,5.883s5.883-2.634,5.883-5.883S14.73,0,11.48,0L11.48,0z"/></g></g><g><g><path d="M3.233,22.186c0.535-4.574,4.06-8.143,8.247-8.143c4.188,0,7.713,3.568,8.247,8.143H3.233z" fill="#FFFFFF"/></g><g><path d="M11.48,15.043c3.336,0,6.195,2.615,7.054,6.143H4.427C5.286,17.658,8.144,15.043,11.48,15.043 M11.48,13.043     c-5.086,0-9.214,4.523-9.315,10.143h18.631C20.694,17.566,16.567,13.043,11.48,13.043L11.48,13.043z"/></g></g><g><g><polygon fill="#6FD4F7" points="13.465,25.866 23.711,15.62 28.712,20.621 18.467,30.867 13.351,30.978    "/></g><g><g><path d="M23.711,17.034l3.587,3.587l-9.254,9.254l-3.67,0.08l0.082-3.666L23.711,17.034 M23.711,14.498      c-0.18,0-0.36,0.068-0.497,0.205l-10.74,10.74L12.328,32l6.562-0.142l10.74-10.74c0.273-0.273,0.273-0.72,0-0.993l-5.422-5.422      C24.071,14.566,23.891,14.498,23.711,14.498L23.711,14.498z"/></g></g></g></g></svg>